<svg width="142" height="32" viewBox="0 0 142 32" fill="none" xmlns="http://www.w3.org/2000/svg">
<g clip-path="url(#clip0)">
<path d="M24.9218 31.7627V27.3817C24.1133 27.4902 23.2986 27.5456 22.4828 27.5476C20.8854 27.5193 19.2957 27.3186 17.7411 26.9492C16.1037 26.5683 14.4302 26.3655 12.7496 26.3442C12.0019 26.3458 11.2548 26.3881 10.5117 26.4711V30.8357C11.074 30.775 11.6391 30.7446 12.2047 30.7447C13.7815 30.7762 15.35 30.9823 16.8816 31.3594C18.5252 31.7603 20.2078 31.9785 21.899 32.0098C22.9111 32.0065 23.9216 31.9272 24.9218 31.7724" fill="#EF4C37"/>
<path d="M47.9236 18.7824C47.0562 19.1711 46.1168 19.3717 45.1668 19.3711C44.2999 19.3794 43.4401 19.214 42.6379 18.8846C41.8356 18.5551 41.1071 18.0683 40.495 17.4527C39.8829 16.8371 39.3996 16.1051 39.0735 15.2997C38.7473 14.4942 38.5849 13.6316 38.5957 12.7623C38.5957 11.0182 39.2867 9.34547 40.5166 8.11218C41.7464 6.87889 43.4145 6.18604 45.1538 6.18604C46.8931 6.18604 48.5611 6.87889 49.791 8.11218C51.0209 9.34547 51.7118 11.0182 51.7118 12.7623C51.7244 13.7373 51.5209 14.7029 51.1159 15.5893C50.7109 16.4757 50.1146 17.2609 49.3701 17.888L53.2621 22.7666H51.1086L47.9236 18.7824ZM45.1668 17.6669C47.8231 17.6669 49.9085 15.5593 49.9085 12.7623C49.9085 9.96528 47.8231 7.7862 45.1668 7.7862C42.5105 7.7862 40.425 9.94577 40.425 12.7623C40.425 15.5789 42.5105 17.6669 45.1668 17.6669Z" fill="#70787A"/>
<path d="M64.9414 13.5039C64.9414 17.0262 62.7554 19.3875 59.4926 19.3875C56.1811 19.3875 53.9789 17.0262 53.9789 13.5039V6.31946H55.7855V13.5039C55.7855 16.0148 57.2644 17.6507 59.5023 17.6507C61.6721 17.6507 63.1349 16.0245 63.1349 13.5039V6.31946H64.9511L64.9414 13.5039Z" fill="#70787A"/>
<path d="M77.1461 19.1338L75.8942 16.353H69.0832L67.8215 19.1338H65.8042L71.7719 6.31946H73.2022L79.1732 19.1338H77.1461ZM72.4887 8.80101L69.8162 14.7008H75.1482L72.4887 8.80101Z" fill="#70787A"/>
<path d="M92.9347 19.1338H91.6569L83.0652 9.6076L83.049 19.1338H81.249V6.31946H82.5268L91.1379 15.9822V6.31946H92.9347V19.1338Z" fill="#70787A"/>
<path d="M100.907 7.9554V19.1338H99.0906V7.9554H94.9878V6.31946H105.026V7.9554H100.907Z" fill="#70787A"/>
<path d="M115.635 19.1338H107.059V6.31946H108.86V17.5011H115.635V19.1338Z" fill="#EF4C37"/>
<path d="M128.213 19.1338L126.951 16.353H120.14L118.878 19.1338H116.861L122.829 6.31946H124.259L130.227 19.1338H128.213ZM123.571 8.80101L120.883 14.7008H126.211L123.571 8.80101Z" fill="#EF4C37"/>
<path d="M142 15.309C142 17.5856 140.268 19.1338 137.527 19.1338H131.644V6.31946H137.242C139.512 6.31946 140.959 7.58463 140.959 9.54255C140.983 10.0046 140.888 10.4651 140.685 10.8805C140.482 11.296 140.177 11.6526 139.798 11.9168C140.47 12.1845 141.042 12.6545 141.436 13.262C141.831 13.8695 142.028 14.5846 142 15.309ZM133.441 11.3834H137.333C138.474 11.3834 139.198 10.7329 139.198 9.67915C139.198 8.62538 138.462 7.9619 137.252 7.9619H133.441V11.3834ZM137.518 17.4816C139.201 17.4816 140.242 16.5904 140.242 15.2049C140.242 13.8194 139.182 12.86 137.433 12.86H133.441V17.4783L137.518 17.4816Z" fill="#EF4C37"/>
<path d="M25.3921 12.7298C25.395 10.3044 24.7071 7.92862 23.4092 5.88197C22.1114 3.83532 20.2576 2.20295 18.066 1.17692C15.8744 0.150887 13.4362 -0.226127 11.0382 0.090237C8.64017 0.406601 6.38214 1.40318 4.52977 2.96272C2.6774 4.52227 1.30774 6.5799 0.58194 8.89352C-0.143859 11.2071 -0.195603 13.6805 0.432795 16.0226C1.06119 18.3647 2.34359 20.4782 4.12911 22.1142C5.91463 23.7503 8.12899 24.841 10.5117 25.2579V20.3794C8.67062 19.8515 7.08184 18.6742 6.03806 17.0644C4.99427 15.4546 4.5658 13.5208 4.83158 11.6193C5.09736 9.71769 6.03949 7.97651 7.48439 6.71651C8.92929 5.45651 10.7796 4.76258 12.6944 4.76258C14.6092 4.76258 16.4596 5.45651 17.9045 6.71651C19.3494 7.97651 20.2915 9.71769 20.5573 11.6193C20.8231 13.5208 20.3946 15.4546 19.3508 17.0644C18.307 18.6742 16.7182 19.8515 14.8772 20.3794V25.2579C17.8187 24.7419 20.4849 23.2033 22.4077 20.9123C24.3306 18.6213 25.3872 15.7243 25.3921 12.7298Z" fill="#EF4C37"/>
</g>
<defs>
<clipPath id="clip0">
<rect width="142" height="32" fill="white"/>
</clipPath>
</defs>
</svg>
